# xmcd
#
# Track frame offsets:
#	150
#	20300
#	42316
#	60316
#	74302
#	99544
#	112770
#	129647
#	153814
#	171284
#	197467
#	216782
#	246459
#	279757
#	298616
#
# Disc length: 4101 seconds
#
# Revision: 1
# Processed by: cddbd v1.5.2PL0 Copyright (c) Steve Scherf et al.
# Submitted via: audiograbber 1.83.01
#
DISCID=cb10030f
DTITLE=Schiller - Future (Limited Super Deluxe Edition) [3CD+DVD] [Box-Set] [CD
DTITLE=2)
DYEAR=2016
DGENRE=Ambient
TTITLE0=Schiller - Die Reise geht weiter
TTITLE1=Schiller mit Arlissa - Not In Love
TTITLE2=Schiller mit Sheppard Solomon - Little Earthquakes
TTITLE3=Schiller - Little Earthquakes - Reprise
TTITLE4=Schiller mit Kéta - The Wait Is Over
TTITLE5=Schiller - Turquoise
TTITLE6=Schiller - Wellenreiter
TTITLE7=Schiller - Mirai
TTITLE8=Schiller - Es ist voller Sterne
TTITLE9=Schiller mit Emma Hewitt - Only Love
TTITLE10=Schiller mit Samu Haber - Save Me A Day
TTITLE11=Schiller - Die Nacht gehört uns
TTITLE12=Schiller mit Kéta - Forget
TTITLE13=Schiller mit Tawgs Salter - For You
TTITLE14=Schiller - Future - Reprise
EXTD=YEAR: 2016
EXTT0=
EXTT1=
EXTT2=
EXTT3=
EXTT4=
EXTT5=
EXTT6=
EXTT7=
EXTT8=
EXTT9=
EXTT10=
EXTT11=
EXTT12=
EXTT13=
EXTT14=
PLAYORDER=
